<?xml version="1.0" encoding="UTF-8" standalone="no"?>
<!-- Created with Inkscape (http://www.inkscape.org/) -->

<svg
   xmlns:dc="http://purl.org/dc/elements/1.1/"
   xmlns:cc="http://creativecommons.org/ns#"
   xmlns:rdf="http://www.w3.org/1999/02/22-rdf-syntax-ns#"
   xmlns:svg="http://www.w3.org/2000/svg"
   xmlns="http://www.w3.org/2000/svg"
   xmlns:xlink="http://www.w3.org/1999/xlink"
   xmlns:sodipodi="http://sodipodi.sourceforge.net/DTD/sodipodi-0.dtd"
   xmlns:inkscape="http://www.inkscape.org/namespaces/inkscape"
   width="64"
   height="64"
   viewBox="0 0 64.000001 64.000001"
   id="svg2"
   version="1.1"
   inkscape:version="0.91 r13725"
   sodipodi:docname="LinkUp.svg">
  <defs
     id="defs4">
    <linearGradient
       inkscape:collect="always"
       id="linearGradient6337">
      <stop
         style="stop-color:#2c89a0;stop-opacity:1"
         offset="0"
         id="stop6339" />
      <stop
         style="stop-color:#216778;stop-opacity:1"
         offset="1"
         id="stop6341" />
    </linearGradient>
    <filter
       inkscape:collect="always"
       style="color-interpolation-filters:sRGB"
       id="filter6325"
       x="-0.024080725"
       width="1.0481614"
       y="-0.023919815"
       height="1.0478396">
      <feGaussianBlur
         inkscape:collect="always"
         stdDeviation="0.43697266"
         id="feGaussianBlur6327" />
    </filter>
    <radialGradient
       inkscape:collect="always"
       xlink:href="#linearGradient6337"
       id="radialGradient6343"
       cx="32"
       cy="1020.3622"
       fx="32"
       fy="1020.3622"
       r="32"
       gradientUnits="userSpaceOnUse" />
  </defs>
  <sodipodi:namedview
     id="base"
     pagecolor="#ffffff"
     bordercolor="#666666"
     borderopacity="1.0"
     inkscape:pageopacity="0.0"
     inkscape:pageshadow="2"
     inkscape:zoom="7.9195959"
     inkscape:cx="14.914919"
     inkscape:cy="28.724377"
     inkscape:document-units="px"
     inkscape:current-layer="layer1"
     showgrid="false"
     units="px"
     inkscape:window-width="1600"
     inkscape:window-height="837"
     inkscape:window-x="-8"
     inkscape:window-y="-8"
     inkscape:window-maximized="1" />
  <metadata
     id="metadata7">
    <rdf:RDF>
      <cc:Work
         rdf:about="">
        <dc:format>image/svg+xml</dc:format>
        <dc:type
           rdf:resource="http://purl.org/dc/dcmitype/StillImage" />
        <dc:title></dc:title>
      </cc:Work>
    </rdf:RDF>
  </metadata>
  <g
     inkscape:label="Ebene 1"
     inkscape:groupmode="layer"
     id="layer1"
     transform="translate(0,-988.36216)">
    <rect
       style="opacity:1;fill:url(#radialGradient6343);fill-opacity:1;fill-rule:evenodd;stroke:none;stroke-width:0.93750006;stroke-miterlimit:4;stroke-dasharray:none;stroke-opacity:1"
       id="rect4686"
       width="64"
       height="64"
       x="0"
       y="988.36218" />
    <path
       style="opacity:1;fill:#ffffff;fill-opacity:1;fill-rule:evenodd;stroke:none;stroke-width:1;stroke-miterlimit:4;stroke-dasharray:none;stroke-opacity:1"
       d="M 16.224609 10.078125 L 13.224609 16.078125 L 10.224609 22.078125 L 13.724609 22.078125 L 13.724609 41.421875 A 12.5 12.5 0 0 0 26.224609 53.921875 L 34.058594 53.921875 C 31.965033 52.678275 30.159924 50.964775 28.873047 48.921875 L 26.224609 48.921875 A 7.5000002 7.5 0 0 1 18.724609 41.421875 L 18.724609 22.078125 L 22.224609 22.078125 L 19.224609 16.078125 L 16.224609 10.078125 z M 31.275391 29.421875 L 28.275391 35.421875 L 25.275391 41.421875 L 28.775391 41.421875 A 12.5 12.5 0 0 0 41.275391 53.921875 A 12.5 12.5 0 0 0 53.775391 41.421875 L 48.775391 41.421875 A 7.5000002 7.5 0 0 1 41.275391 48.921875 A 7.5000002 7.5 0 0 1 33.775391 41.421875 L 37.275391 41.421875 L 34.275391 35.421875 L 31.275391 29.421875 z "
       transform="translate(0,988.36216)"
       id="path5135" />
    <path
       transform="translate(0,988.36216)"
       style="opacity:0.5;fill:#ffffff;fill-opacity:1;fill-rule:evenodd;stroke:#000000;stroke-width:1;stroke-miterlimit:4;stroke-dasharray:none;stroke-opacity:1;filter:url(#filter6325)"
       d="M 16.224609 10.078125 L 13.224609 16.078125 L 10.224609 22.078125 L 13.724609 22.078125 L 13.724609 41.421875 A 12.5 12.5 0 0 0 26.224609 53.921875 L 34.058594 53.921875 C 31.965033 52.678275 30.159924 50.964775 28.873047 48.921875 L 26.224609 48.921875 A 7.5000002 7.5 0 0 1 18.724609 41.421875 L 18.724609 22.078125 L 22.224609 22.078125 L 19.224609 16.078125 L 16.224609 10.078125 z M 31.275391 29.421875 L 28.275391 35.421875 L 25.275391 41.421875 L 28.775391 41.421875 A 12.5 12.5 0 0 0 41.275391 53.921875 A 12.5 12.5 0 0 0 53.775391 41.421875 L 48.775391 41.421875 A 7.5000002 7.5 0 0 1 41.275391 48.921875 A 7.5000002 7.5 0 0 1 33.775391 41.421875 L 37.275391 41.421875 L 34.275391 35.421875 L 31.275391 29.421875 z "
       id="path5967" />
    <path
       id="path5141"
       d="M 16.224609 10.078125 L 13.224609 16.078125 L 10.224609 22.078125 L 13.724609 22.078125 L 13.724609 41.421875 A 12.5 12.5 0 0 0 26.224609 53.921875 L 34.058594 53.921875 C 31.965033 52.678275 30.159924 50.964775 28.873047 48.921875 L 26.224609 48.921875 A 7.5000002 7.5 0 0 1 18.724609 41.421875 L 18.724609 22.078125 L 22.224609 22.078125 L 19.224609 16.078125 L 16.224609 10.078125 z M 31.275391 29.421875 L 28.275391 35.421875 L 25.275391 41.421875 L 28.775391 41.421875 A 12.5 12.5 0 0 0 41.275391 53.921875 A 12.5 12.5 0 0 0 53.775391 41.421875 L 48.775391 41.421875 A 7.5000002 7.5 0 0 1 41.275391 48.921875 A 7.5000002 7.5 0 0 1 33.775391 41.421875 L 37.275391 41.421875 L 34.275391 35.421875 L 31.275391 29.421875 z "
       style="opacity:1;fill:#ffffff;fill-opacity:1;fill-rule:evenodd;stroke:none;stroke-width:1;stroke-miterlimit:4;stroke-dasharray:none;stroke-opacity:1"
       transform="translate(0,988.36216)" />
  </g>
</svg>
